<svg version="1.1" viewBox="0.0 0.0 562.6561679790026 196.36482939632546" fill="none" stroke="none" stroke-linecap="square" stroke-miterlimit="10" xmlns:xlink="http://www.w3.org/1999/xlink" xmlns="http://www.w3.org/2000/svg"><clipPath id="p.0"><path d="m0 0l562.6562 0l0 196.36482l-562.6562 0l0 -196.36482z" clip-rule="nonzero"/></clipPath><g clip-path="url(#p.0)"><path fill="#000000" fill-opacity="0.0" d="m0 0l562.6562 0l0 196.36482l-562.6562 0z" fill-rule="evenodd"/><path fill="#000000" fill-opacity="0.0" d="m0 0l595.37006 0l0 206.4252l-595.37006 0z" fill-rule="evenodd"/><path fill="#000000" d="m49.453125 133.41125q-17.921875 0 -26.5625 -12.09375q-8.640625 -12.09375 -8.640625 -34.109375q0 -22.015625 8.640625 -34.109375q8.640625 -12.09375 26.5625 -12.09375q6.90625 0 12.21875 1.859375q5.3125 1.84375 9.140625 5.171875q3.84375 3.328125 6.34375 8.0625q2.5 4.734375 3.90625 10.625l-17.921875 4.359375q-0.765625 -3.203125 -1.796875 -5.890625q-1.015625 -2.6875 -2.625 -4.609375q-1.59375 -1.921875 -3.96875 -3.0q-2.359375 -1.09375 -5.6875 -1.09375q-7.8125 0 -11.078125 6.078125q-3.25 6.078125 -3.25 16.828125l0 15.625q0 10.75 3.25 16.828125q3.265625 6.078125 11.078125 6.078125q6.65625 0 9.65625 -4.09375q3.015625 -4.09375 4.421875 -10.5l17.921875 4.359375q-1.40625 5.890625 -3.90625 10.625q-2.5 4.734375 -6.34375 8.125q-3.828125 3.390625 -9.140625 5.1875q-5.3125 1.78125 -12.21875 1.78125zm74.75314 0q-7.6875 0 -13.828125 -2.359375q-6.140625 -2.375 -10.4375 -6.84375q-4.28125 -4.484375 -6.59375 -10.875q-2.296875 -6.40625 -2.296875 -14.484375q0 -8.0625 2.296875 -14.453125q2.3125 -6.40625 6.59375 -10.875q4.296875 -4.484375 10.4375 -6.84375q6.140625 -2.375 13.828125 -2.375q7.671875 0 13.8125 2.375q6.15625 2.359375 10.4375 6.84375q4.28125 4.46875 6.578125 10.875q2.3125 6.390625 2.3125 14.453125q0 8.078125 -2.3125 14.484375q-2.296875 6.390625 -6.578125 10.875q-4.28125 4.46875 -10.4375 6.84375q-6.140625 2.359375 -13.8125 2.359375zm0 -14.078125q6.390625 0 9.96875 -3.96875q3.59375 -3.96875 3.59375 -11.265625l0 -10.484375q0 -7.296875 -3.59375 -11.265625q-3.578125 -3.96875 -9.96875 -3.96875q-6.40625 0 -10.0 3.96875q-3.578125 3.96875 -3.578125 11.265625l0 10.484375q0 7.296875 3.578125 11.265625q3.59375 3.96875 10.0 3.96875zm42.23752 12.546875l0 -66.046875l15.234375 0l0 9.734375l0.890625 0q1.53125 -4.609375 4.40625 -7.9375q2.890625 -3.328125 8.140625 -3.328125q9.59375 0 11.765625 11.265625l0.78125 0q0.765625 -2.3125 1.90625 -4.359375q1.15625 -2.046875 2.8125 -3.578125q1.671875 -1.546875 3.96875 -2.4375q2.3125 -0.890625 5.390625 -0.890625q13.8125 0 13.8125 20.34375l0 47.234375l-15.21875 0l0 -45.3125q0 -4.609375 -1.609375 -6.453125q-1.59375 -1.859375 -4.15625 -1.859375q-2.4375 0 -4.171875 1.59375q-1.71875 1.59375 -1.71875 4.921875l0 47.109375l-15.359375 0l0 -45.3125q0 -4.609375 -1.46875 -6.453125q-1.46875 -1.859375 -4.03125 -1.859375q-2.5625 0 -4.359375 1.59375q-1.78125 1.59375 -1.78125 4.921875l0 47.109375l-15.234375 0zm80.50314 -94.71875l18.953125 0l0 40.703125l0.890625 0q2.4375 -5.890625 7.046875 -9.71875q4.609375 -3.84375 12.53125 -3.84375q5.515625 0 10.046875 2.046875q4.546875 2.046875 7.8125 6.265625q3.265625 4.21875 5.125 10.75q1.859375 6.53125 1.859375 15.484375q0 8.96875 -1.859375 15.5q-1.859375 6.515625 -5.125 10.75q-3.265625 4.21875 -7.8125 6.265625q-4.53125 2.046875 -10.046875 2.046875q-7.921875 0 -12.53125 -3.765625q-4.609375 -3.78125 -7.046875 -9.796875l-0.890625 0l0 12.03125l-18.953125 0l0 -94.71875zm31.234375 81.53125q6.40625 0 9.859375 -3.890625q3.453125 -3.90625 3.453125 -10.828125l0 -10.234375q0 -6.921875 -3.453125 -10.8125q-3.453125 -3.90625 -9.859375 -3.90625q-4.984375 0 -8.640625 2.4375q-3.640625 2.421875 -3.640625 7.671875l0 19.453125q0 5.25 3.640625 7.6875q3.65625 2.421875 8.640625 2.421875zm80.51877 -61.3125q-6.40625 0 -8.90625 -2.625q-2.484375 -2.625 -2.484375 -6.328125l0 -3.71875q0 -3.84375 2.484375 -6.390625q2.5 -2.5625 8.90625 -2.5625q6.390625 0 8.890625 2.5625q2.5 2.546875 2.5 6.390625l0 3.71875q0 3.703125 -2.5 6.328125q-2.5 2.625 -8.890625 2.625zm-30.46875 59.78125l21.0 0l0 -36.609375l-21.0 0l0 -14.71875l39.9375 0l0 51.328125l19.453125 0l0 14.71875l-59.390625 0l0 -14.71875zm73.08127 14.71875l0 -66.046875l18.953125 0l0 12.03125l0.765625 0q1.15625 -2.8125 2.8125 -5.25q1.671875 -2.4375 4.03125 -4.28125q2.375 -1.859375 5.5 -2.9375q3.140625 -1.09375 7.109375 -1.09375q4.734375 0 8.703125 1.59375q3.96875 1.59375 6.78125 4.796875q2.828125 3.203125 4.421875 7.8125q1.59375 4.609375 1.59375 10.625l0 42.75l-18.9375 0l0 -40.1875q0 -12.796875 -11.140625 -12.796875q-2.171875 0 -4.28125 0.578125q-2.109375 0.5625 -3.78125 1.78125q-1.65625 1.21875 -2.625 3.015625q-0.953125 1.78125 -0.953125 4.21875l0 43.390625l-18.953125 0zm106.89377 1.53125q-7.6875 0 -13.828125 -2.359375q-6.140625 -2.375 -10.4375 -6.84375q-4.28125 -4.484375 -6.59375 -10.875q-2.296875 -6.40625 -2.296875 -14.484375q0 -8.0625 2.296875 -14.453125q2.3125 -6.40625 6.59375 -10.875q4.296875 -4.484375 10.4375 -6.84375q6.140625 -2.375 13.828125 -2.375q7.671875 0 13.8125 2.375q6.15625 2.359375 10.4375 6.84375q4.28125 4.46875 6.578125 10.875q2.3125 6.390625 2.3125 14.453125q0 8.078125 -2.3125 14.484375q-2.296875 6.390625 -6.578125 10.875q-4.28125 4.46875 -10.4375 6.84375q-6.140625 2.359375 -13.8125 2.359375zm0 -14.078125q6.390625 0 9.96875 -3.96875q3.59375 -3.96875 3.59375 -11.265625l0 -10.484375q0 -7.296875 -3.59375 -11.265625q-3.578125 -3.96875 -9.96875 -3.96875q-6.40625 0 -10.0 3.96875q-3.578125 3.96875 -3.578125 11.265625l0 10.484375q0 7.296875 3.578125 11.265625q3.59375 3.96875 10.0 3.96875z" fill-rule="nonzero"/></g></svg>